<svg width="32" height="32" viewBox="0 0 32 32" fill="none" xmlns="http://www.w3.org/2000/svg">
<path d="M27.1137 6.30516C26.9447 6.13716 26.7457 6.05266 26.5157 6.05266C26.4012 6.05266 26.1597 6.14666 25.7927 6.33216C25.4252 6.51816 25.0352 6.72516 24.6247 6.95616C24.2132 7.18566 23.7262 7.39366 23.1642 7.57966C22.6027 7.76516 22.0827 7.85916 21.6042 7.85916C21.1622 7.85916 20.7722 7.77516 20.4362 7.60666C19.3217 7.08466 18.3522 6.69516 17.5292 6.43816C16.7062 6.18166 15.8212 6.05266 14.8737 6.05266C13.2377 6.05266 11.3742 6.58466 9.28524 7.64666C8.85424 7.86166 8.54524 8.02816 8.34524 8.15016L8.14674 6.69466C8.59524 6.30516 8.88474 5.73766 8.88474 5.09716C8.88474 3.92366 7.93374 2.97266 6.76024 2.97266C5.58674 2.97266 4.63574 3.92366 4.63574 5.09716C4.63574 5.86266 5.04474 6.52816 5.65174 6.90216L8.52174 27.9472C8.60724 28.5737 9.14324 29.0282 9.75874 29.0282C9.81474 29.0282 9.87174 29.0247 9.92924 29.0172C10.6132 28.9232 11.0922 28.2937 10.9987 27.6097L9.84524 19.1512C11.9382 18.1127 13.7487 17.5892 15.2717 17.5892C15.9182 17.5892 16.5487 17.6857 17.1632 17.8807C17.7782 18.0762 18.2897 18.2882 18.6967 18.5177C19.1037 18.7477 19.5842 18.9607 20.1367 19.1547C20.6902 19.3497 21.2367 19.4472 21.7762 19.4472C23.1392 19.4472 24.7717 18.9337 26.6742 17.9072C26.9132 17.7832 27.0882 17.6612 27.1987 17.5417C27.3092 17.4222 27.3647 17.2522 27.3647 17.0312V6.90266C27.3647 6.67316 27.2812 6.47366 27.1137 6.30516Z" fill="#F0145A"/>
</svg>
