<svg width="32" height="32" viewBox="0 0 32 32" fill="none" xmlns="http://www.w3.org/2000/svg">
<path d="M17.2321 18.331V17.773C17.2321 17.0925 16.6806 16.541 16.0006 16.541C15.3201 16.541 14.7686 17.0925 14.7686 17.773V18.331C14.7686 19.0115 15.3201 19.563 16.0006 19.563C16.6801 19.563 17.2321 19.0115 17.2321 18.331Z" fill="#F0145A"/>
<path d="M18.0769 19.0143C17.8039 19.9078 16.9814 20.5638 16.0004 20.5638C15.0189 20.5638 14.1964 19.9078 13.9234 19.0143H5.43886C4.90336 19.0143 4.39736 18.8898 3.94336 18.6738V24.3073C3.94336 25.4073 4.84336 26.3073 5.94336 26.3073H26.0564C27.1564 26.3073 28.0564 25.4073 28.0564 24.3073V18.6743C27.6019 18.8903 27.0964 19.0148 26.5609 19.0148H18.0769V19.0143Z" fill="#F0145A"/>
<path d="M26.4775 8.89736H21.677C21.387 7.08436 19.8165 5.69336 17.923 5.69336H14.0765C12.183 5.69336 10.613 7.08436 10.3225 8.89736H5.52247C4.37647 8.89736 3.43896 9.79736 3.43896 10.8974V15.5139C3.43896 16.6184 4.33447 17.5139 5.43897 17.5139H13.829C13.8575 16.9384 14.1045 16.4214 14.495 16.0474C14.507 16.0359 14.521 16.0269 14.5335 16.0159C14.62 15.9364 14.71 15.8614 14.8085 15.7964C14.8435 15.7729 14.8835 15.7569 14.92 15.7359C15.001 15.6894 15.081 15.6409 15.1685 15.6049C15.237 15.5764 15.311 15.5599 15.383 15.5384C15.445 15.5199 15.504 15.4954 15.5685 15.4824C15.708 15.4539 15.8525 15.4389 16 15.4389C16.148 15.4389 16.292 15.4544 16.4315 15.4824C16.4955 15.4954 16.5545 15.5199 16.6165 15.5384C16.6885 15.5599 16.7625 15.5764 16.831 15.6054C16.918 15.6414 16.9975 15.6894 17.0785 15.7359C17.1155 15.7574 17.1555 15.7734 17.191 15.7969C17.2895 15.8614 17.379 15.9364 17.4655 16.0159C17.478 16.0274 17.4925 16.0364 17.5045 16.0484C17.8955 16.4224 18.142 16.9394 18.1705 17.5149H26.5605C27.665 17.5149 28.5605 16.6194 28.5605 15.5149V10.8984C28.561 9.79736 27.6235 8.89736 26.4775 8.89736ZM12.248 8.89736C12.503 8.12686 13.2215 7.56536 14.0765 7.56536H17.923C18.778 7.56536 19.4965 8.12686 19.7515 8.89736H12.248Z" fill="#F0145A"/>
</svg>
